<?xml version="1.0" encoding="UTF-8" standalone="no"?>
<!-- Created with Inkscape (http://www.inkscape.org/) -->

<svg
   version="1.1"
   id="svg2"
   width="1587.4"
   height="1122.52"
   viewBox="0 0 1587.4 1122.52"
   sodipodi:docname="Flinders.svg"
   inkscape:version="1.2.1 (9c6d41e410, 2022-07-14)"
   xmlns:inkscape="http://www.inkscape.org/namespaces/inkscape"
   xmlns:sodipodi="http://sodipodi.sourceforge.net/DTD/sodipodi-0.dtd"
   xmlns="http://www.w3.org/2000/svg"
   xmlns:svg="http://www.w3.org/2000/svg">
  <defs
     id="defs6">
    <clipPath
       clipPathUnits="userSpaceOnUse"
       id="clipPath18">
      <path
         d="M 0,841.89 H 1190.551 V 0 H 0 Z"
         id="path16" />
    </clipPath>
  </defs>
  <sodipodi:namedview
     id="namedview4"
     pagecolor="#ffffff"
     bordercolor="#666666"
     borderopacity="1.0"
     inkscape:showpageshadow="2"
     inkscape:pageopacity="0.0"
     inkscape:pagecheckerboard="0"
     inkscape:deskcolor="#d1d1d1"
     showgrid="false"
     inkscape:zoom="0.52032051"
     inkscape:cx="1059.9236"
     inkscape:cy="696.68597"
     inkscape:window-width="1920"
     inkscape:window-height="1013"
     inkscape:window-x="-9"
     inkscape:window-y="-9"
     inkscape:window-maximized="1"
     inkscape:current-layer="g10">
    <inkscape:page
       x="0"
       y="0"
       id="page8"
       width="1587.4"
       height="1122.52" />
  </sodipodi:namedview>
  <g
     id="g10"
     inkscape:groupmode="layer"
     inkscape:label="Page 1"
     transform="matrix(1.3333333,0,0,-1.3333333,0,1122.52)">
    <rect
       style="opacity:1;fill:#ffffff;stroke:none;stroke-width:19.8771;stroke-dasharray:39.7542, 19.8771;stroke-dashoffset:0"
       id="rect218"
       width="1190.5502"
       height="841.89001"
       x="-8.5265128e-14"
       y="-841.89001"
       transform="scale(1,-1)" />
    <g
       id="g12">
      <g
         id="g14"
         clip-path="url(#clipPath18)">
        <g
           id="g20"
           transform="translate(457.1021,367.6836)">
          <path
             d="m 0,0 c 0,-15.249 -8.235,-23.636 -22.112,-23.636 -13.725,0 -22.112,8.387 -22.112,23.636 V 69.385 H -62.37 V -1.068 c 0,-26.076 17.689,-39.952 40.258,-39.952 22.721,0 40.411,13.876 40.411,39.952 V 69.385 H 0 Z"
             style="fill:#222a45;fill-opacity:1;fill-rule:nonzero;stroke:none"
             id="path22" />
        </g>
        <g
           id="g24"
           transform="translate(533.5146,405.3499)">
          <path
             d="m 0,0 c -8.234,0 -17.079,-3.508 -21.959,-12.048 v 9.913 H -39.191 V -76.4 h 17.69 v 42.851 c 0,9.759 5.337,17.537 15.402,17.537 11.132,0 15.249,-7.319 15.249,-16.47 V -76.4 h 17.689 v 46.968 C 26.839,-13.116 18.147,0 0,0"
             style="fill:#222a45;fill-opacity:1;fill-rule:nonzero;stroke:none"
             id="path26" />
        </g>
        <g
           id="g28"
           transform="translate(650.144,350.1461)">
          <path
             d="M 0,0 -19.672,53.069 H -39.191 L -8.997,-21.196 H 8.693 L 37.819,53.069 H 19.215 Z"
             style="fill:#222a45;fill-opacity:1;fill-rule:nonzero;stroke:none"
             id="path30" />
        </g>
        <g
           id="g32"
           transform="translate(710.9847,374.2404)">
          <path
             d="M 0,0 C 0.611,7.929 7.015,16.47 18.147,16.47 30.346,16.47 36.142,8.692 36.446,0 Z m 17.995,31.261 c -18.757,0 -36.141,-15.554 -36.141,-39.039 0,-25.16 17.841,-39.799 37.971,-39.799 17.841,0 29.584,10.52 33.548,23.483 l -14.944,4.728 C 35.989,-26.685 30.5,-32.328 19.825,-32.328 8.846,-32.328 0,-24.246 -0.457,-12.962 h 54.288 c 0.153,0.304 0.458,2.744 0.458,5.642 0,23.485 -13.42,38.581 -36.294,38.581"
             style="fill:#222a45;fill-opacity:1;fill-rule:nonzero;stroke:none"
             id="path34" />
        </g>
        <g
           id="g36"
           transform="translate(796.6851,391.3198)">
          <path
             d="M 0,0 V 11.895 H -17.233 V -62.37 h 17.69 v 35.38 c 0,13.876 6.252,21.805 19.976,21.805 1.831,0 3.813,-0.153 5.795,-0.458 v 17.996 c -0.762,0.151 -2.592,0.456 -4.727,0.456 C 11.741,12.809 3.506,8.083 0,0"
             style="fill:#222a45;fill-opacity:1;fill-rule:nonzero;stroke:none"
             id="path38" />
        </g>
        <g
           id="g40"
           transform="translate(867.8995,373.0216)">
          <path
             d="m 0,0 -11.285,2.286 c -4.574,0.915 -7.473,3.813 -7.473,7.778 0,4.575 4.423,8.539 10.675,8.539 9.912,0 13.115,-6.862 13.725,-11.132 l 14.945,4.27 c -1.221,7.32 -7.93,20.738 -28.67,20.738 -15.402,0 -27.296,-10.978 -27.296,-23.94 0,-10.218 6.862,-18.757 19.977,-21.655 l 10.979,-2.44 c 5.948,-1.219 8.692,-4.27 8.692,-8.234 0,-4.575 -3.812,-8.541 -11.132,-8.541 -9.455,0 -14.487,5.948 -15.096,12.658 l -15.403,-4.27 c 0.916,-8.388 9.151,-22.415 30.652,-22.415 18.91,0 28.059,12.504 28.059,23.787 C 21.349,-11.59 14.029,-3.052 0,0"
             style="fill:#222a45;fill-opacity:1;fill-rule:nonzero;stroke:none"
             id="path42" />
        </g>
        <path
           d="m 906.78,328.95 h 17.537 v 74.265 H 906.78 Z"
           style="fill:#222a45;fill-opacity:1;fill-rule:nonzero;stroke:none"
           id="path44" />
        <g
           id="g46"
           transform="translate(969.6071,353.0442)">
          <path
             d="M 0,0 V 34.463 H 15.401 V 50.171 H 0 V 72.893 H -16.012 V 61.761 c 0,-6.557 -3.507,-11.59 -11.438,-11.59 h -3.812 V 34.463 h 13.724 V -2.898 c 0,-13.877 8.54,-22.111 22.265,-22.111 6.405,0 9.76,1.219 10.828,1.678 V -8.692 C 14.792,-8.846 11.894,-9.301 9.454,-9.301 2.897,-9.301 0,-6.557 0,0"
             style="fill:#222a45;fill-opacity:1;fill-rule:nonzero;stroke:none"
             id="path48" />
        </g>
        <path
           d="m 580.451,328.95 h 17.538 v 74.265 h -17.538 z"
           style="fill:#222a45;fill-opacity:1;fill-rule:nonzero;stroke:none"
           id="path50" />
        <g
           id="g52"
           transform="translate(589.1566,437.0801)">
          <path
             d="m 0,0 c -5.185,0 -9.484,-4.299 -9.484,-9.611 0,-5.31 4.299,-9.483 9.484,-9.483 5.312,0 9.611,4.173 9.611,9.483 C 9.611,-4.299 5.312,0 0,0"
             style="fill:#222a45;fill-opacity:1;fill-rule:nonzero;stroke:none"
             id="path54" />
        </g>
        <g
           id="g56"
           transform="translate(915.4858,437.0801)">
          <path
             d="m 0,0 c -5.185,0 -9.484,-4.299 -9.484,-9.611 0,-5.31 4.299,-9.483 9.484,-9.483 5.312,0 9.611,4.173 9.611,9.483 C 9.611,-4.299 5.312,0 0,0"
             style="fill:#222a45;fill-opacity:1;fill-rule:nonzero;stroke:none"
             id="path58" />
        </g>
        <g
           id="g60"
           transform="translate(1055.3348,403.2147)">
          <path
             d="M 0,0 -20.488,-59.68 -20.972,-59.695 -39.112,0 h -18.791 l 28.333,-79.752 -1.578,-4.223 c -1.117,-2.951 -2.484,-5.061 -4.093,-6.333 -1.61,-1.27 -3.469,-1.923 -5.571,-1.958 -2.102,-0.032 -4.492,0.34 -7.169,1.119 l -4.274,-14.343 c 1.255,-0.508 2.941,-0.957 5.061,-1.348 2.119,-0.39 4.433,-0.584 6.944,-0.584 4.814,0 8.96,0.787 12.435,2.364 3.476,1.577 6.417,3.85 8.825,6.816 2.407,2.968 4.339,6.519 5.8,10.656 L 18.09,0 Z"
             style="fill:#222a45;fill-opacity:1;fill-rule:nonzero;stroke:none"
             id="path62" />
        </g>
        <g
           id="g64"
           transform="translate(302.8013,449.6315)">
          <path
             d="m 0,0 -32.772,-3.872 17.406,-28.037 -31.207,10.731 1.17,-26.891 c -27.016,37.799 -65.032,67.225 -109.341,83.535 l 32.348,3.823 -17.406,28.036 31.207,-10.731 -3.517,32.812 23.461,-23.208 11.066,31.089 11.068,-31.089 23.461,23.208 -3.517,-32.812 31.207,10.731 L -32.772,39.289 0,35.417 -27.848,17.708 Z m 30.472,126.044 h -216.147 c 0,0 0.028,-78.167 0.025,-100.804 51.772,-12.256 96.347,-43.325 126.042,-85.594 0,0 0,0 -0.001,0 0.001,-10e-4 0.001,-10e-4 0.001,-10e-4 21.547,6.605 45.098,9.956 68.595,9.209 -1.439,-3.796 -3.122,-7.479 -5.042,-11.055 -23.797,0.135 -46.326,-3.768 -68.077,-11.369 -2.084,3.239 -4.267,6.406 -6.526,9.515 v 0 c -27.725,38.059 -68.088,66.077 -114.988,77.84 0.002,-2.646 0.017,-15.46 0.017,-15.46 40.672,-11.081 75.913,-35.47 100.698,-68.214 0,0 0,0 0,0 5.322,-7.036 10.139,-14.432 14.432,-22.154 20.49,8.608 41.835,13.593 64.328,14.679 -3.394,-4.198 -7.195,-8.23 -11.408,-12.105 -20.194,-2.346 -39.738,-8.117 -57.872,-17.146 -21.694,44.83 -61.668,79.249 -110.178,93.36 v -3.91 l 0.001,10e-4 c 0.092,-4.03 0.256,-8.025 0.798,-11.993 30.418,-9.942 56.919,-28.622 76.475,-53.109 0,0 -10e-4,0 -10e-4,0 9.332,-11.663 17.038,-24.634 22.848,-38.409 -5.379,2.051 -10.528,4.246 -15.43,6.619 -17.114,33.209 -46.366,59.204 -81.705,72.302 10.538,-49.016 57.799,-84.729 105.041,-96.886 55.795,14.088 108.606,60.58 108.027,121.476 l 10e-4,-10e-4 c 0.01,14.063 0.008,113.407 0.046,143.209"
             style="fill:#222a45;fill-opacity:1;fill-rule:nonzero;stroke:none"
             id="path66" />
        </g>
        <g
           id="g68"
           transform="translate(227.7128,391.4285)">
          <path
             d="m 0,0 c 3.888,-4.95 7.544,-10.072 10.957,-15.367 21.749,7.601 44.281,11.504 68.077,11.37 1.92,3.575 3.603,7.258 5.041,11.054 C 60.577,7.804 37.03,4.453 15.48,-2.152 c -29.694,42.269 -74.269,73.339 -126.042,85.595 -0.001,-3.731 0.002,-8.453 0.004,-11.455 C -66.117,60.851 -27.443,35.03 0,0"
             style="fill:#ffffff;fill-opacity:1;fill-rule:nonzero;stroke:none"
             id="path70" />
        </g>
        <g
           id="g72"
           transform="translate(207.6116,374.7717)">
          <path
             d="m 0,0 c 7.718,-9.816 14.245,-20.535 19.739,-31.756 18.135,9.031 37.677,14.8 57.871,17.147 4.214,3.875 8.014,7.906 11.409,12.105 C 66.526,-3.59 45.18,-8.575 24.691,-17.183 20.398,-9.461 15.58,-2.065 10.258,4.97 -14.527,37.713 -49.768,62.103 -90.44,73.184 V 61.605 C -54.146,51.034 -22.631,29.139 0,0"
             style="fill:#ffffff;fill-opacity:1;fill-rule:nonzero;stroke:none"
             id="path74" />
        </g>
        <g
           id="g76"
           transform="translate(185.0593,361.2864)">
          <path
             d="m 0,0 c 6.436,-7.976 12.122,-16.575 16.804,-25.711 4.902,-2.373 10.051,-4.568 15.43,-6.618 -18.077,43.036 -54.492,76.92 -99.323,91.517 0.516,-4.312 1.249,-8.508 2.186,-12.597 C -39.286,37.089 -16.912,20.865 0,0"
             style="fill:#ffffff;fill-opacity:1;fill-rule:nonzero;stroke:none"
             id="path78" />
        </g>
        <g
           id="g80"
           transform="translate(270.0297,488.9201)">
          <path
             d="M 0,0 17.405,28.036 -13.801,17.306 -10.285,50.117 -33.745,26.91 -44.814,57.999 -55.879,26.91 -79.34,50.117 -75.823,17.306 -107.03,28.036 -89.625,0 -121.972,-3.823 c 44.309,-16.31 82.325,-45.735 109.34,-83.535 L -13.801,-60.466 17.405,-71.198 0,-43.16 32.772,-39.289 4.924,-21.581 32.772,-3.872 Z"
             style="fill:#fcd411;fill-opacity:1;fill-rule:nonzero;stroke:none"
             id="path82" />
        </g>
        <g
           id="g84"
           transform="translate(414.2514,511.1703)">
          <path
             d="M 0,0 H 43.918 V 16.926 H 0 V 47.272 H 48.95 V 64.505 H -18.299 V -43.614 H 0 Z"
             style="fill:#222a45;fill-opacity:1;fill-rule:nonzero;stroke:none"
             id="path86" />
        </g>
        <path
           d="m 497.507,575.675 h -17.69 V 467.556 h 17.69 z"
           style="fill:#222a45;fill-opacity:1;fill-rule:nonzero;stroke:none"
           id="path88" />
        <path
           d="m 520.378,467.557 h 17.538 v 74.265 h -17.538 z"
           style="fill:#222a45;fill-opacity:1;fill-rule:nonzero;stroke:none"
           id="path90" />
        <g
           id="g92"
           transform="translate(624.323,467.5565)">
          <path
             d="M 0,0 V 46.968 C 0,63.284 -8.693,76.4 -26.839,76.4 c -8.235,0 -17.079,-3.507 -21.959,-12.048 v 9.913 H -66.031 V 0 h 17.69 v 42.851 c 0,9.759 5.337,17.537 15.401,17.537 11.133,0 15.25,-7.319 15.25,-16.47 L -17.69,0 Z"
             style="fill:#222a45;fill-opacity:1;fill-rule:nonzero;stroke:none"
             id="path94" />
        </g>
        <g
           id="g96"
           transform="translate(675.8174,481.2819)">
          <path
             d="m 0,0 c -12.047,0 -19.977,9.453 -19.977,23.636 0,14.181 8.539,23.178 20.129,23.178 11.589,0 19.52,-8.843 19.52,-23.027 C 19.672,9.606 11.589,0 0,0 m 20.586,-13.725 h 16.927 c -0.153,1.221 -0.762,6.861 -0.762,13.572 V 94.394 H 19.519 V 51.848 c -2.287,4.726 -8.845,10.673 -21.807,10.673 -20.892,0 -35.378,-17.535 -35.378,-38.885 0,-22.417 14.333,-39.192 35.683,-39.192 10.522,0 18.299,5.185 21.807,11.437 0,-3.05 0.457,-7.929 0.762,-9.606"
             style="fill:#222a45;fill-opacity:1;fill-rule:nonzero;stroke:none"
             id="path98" />
        </g>
        <g
           id="g100"
           transform="translate(762.5052,529.3172)">
          <path
             d="M 0,0 C 12.2,0 17.995,-7.778 18.299,-16.47 H -18.147 C -17.536,-8.541 -11.132,0 0,0 m 1.678,-64.047 c 17.841,0 29.584,10.52 33.548,23.483 l -14.944,4.728 c -2.44,-7.319 -7.929,-12.962 -18.604,-12.962 -10.979,0 -19.825,8.082 -20.282,19.366 h 54.289 c 0.152,0.304 0.457,2.744 0.457,5.642 0,23.485 -13.42,38.581 -36.294,38.581 -18.757,0 -36.141,-15.554 -36.141,-39.039 0,-25.16 17.841,-39.799 37.971,-39.799"
             style="fill:#222a45;fill-opacity:1;fill-rule:nonzero;stroke:none"
             id="path102" />
        </g>
        <g
           id="g104"
           transform="translate(850.492,524.7421)">
          <path
             d="m 0,0 c 1.831,0 3.812,-0.153 5.795,-0.458 v 17.996 c -0.763,0.151 -2.592,0.455 -4.727,0.455 -9.76,0 -17.995,-4.726 -21.503,-12.808 v 11.894 h -17.231 v -74.265 h 17.69 v 35.38 C -19.976,-7.929 -13.724,0 0,0"
             style="fill:#222a45;fill-opacity:1;fill-rule:nonzero;stroke:none"
             id="path106" />
        </g>
        <g
           id="g108"
           transform="translate(922.6216,489.0576)">
          <path
             d="m 0,0 c 0,10.981 -7.32,19.519 -21.349,22.571 l -11.285,2.286 c -4.574,0.914 -7.472,3.812 -7.472,7.778 0,4.575 4.423,8.539 10.675,8.539 9.912,0 13.115,-6.862 13.724,-11.132 l 14.944,4.27 c -1.219,7.32 -7.929,20.738 -28.668,20.738 -15.403,0 -27.296,-10.978 -27.296,-23.941 0,-10.217 6.861,-18.756 19.976,-21.654 l 10.98,-2.44 c 5.947,-1.219 8.692,-4.27 8.692,-8.234 0,-4.575 -3.813,-8.541 -11.132,-8.541 -9.455,0 -14.487,5.948 -15.097,12.658 l -15.402,-4.27 c 0.915,-8.388 9.149,-22.415 30.651,-22.415 C -9.149,-23.787 0,-11.283 0,0"
             style="fill:#222a45;fill-opacity:1;fill-rule:nonzero;stroke:none"
             id="path110" />
        </g>
        <g
           id="g112"
           transform="translate(529.084,556.7936)">
          <path
             d="m 0,0 c 5.312,0 9.611,4.174 9.611,9.484 0,5.311 -4.299,9.61 -9.611,9.61 -5.185,0 -9.484,-4.299 -9.484,-9.61 C -9.484,4.174 -5.185,0 0,0"
             style="fill:#222a45;fill-opacity:1;fill-rule:nonzero;stroke:none"
             id="path114" />
        </g>
      </g>
    </g>
  </g>
</svg>
